<svg xmlns="http://www.w3.org/2000/svg" width="20" height="20" fill="none"><path fill="#C5DBFC" d="M.72 8.227c5.27-4.582 13.125-4.573 18.402 0V19.26a.659.659 0 0 1-.658.659H1.379a.659.659 0 0 1-.659-.659V8.227Z"/><path fill="#0B2F73" d="m9.905 1.52 7.835 6.785-7.835 7.382-7.834-7.382L9.905 1.52Z"/><path fill="#FECF40" d="M3.248.325h13.314v9.089l-2.304 2.177-1.792 1.707H7.345l-2.134-1.963-1.963-1.918V.325Z"/><mask id="a" width="20" height="16" x="0" y="4" maskUnits="userSpaceOnUse" style="mask-type:alpha"><path fill="#A48CFA" d="M.72 8.227c5.27-4.582 13.125-4.573 18.402 0V19.26a.659.659 0 0 1-.658.659H1.379a.659.659 0 0 1-.659-.659V8.227Z"/></mask><g mask="url(#a)"><path fill="#C5DBFC" d="M8.799 12.111a1.511 1.511 0 0 1 2.097 0l8.72 8.404H.079l8.72-8.404Z"/><path fill="#0B2F73" fill-rule="evenodd" d="M8.666 11.973a1.703 1.703 0 0 1 2.363 0l9.062 8.733H-.397l9.063-8.733Zm2.097.276a1.32 1.32 0 0 0-1.831 0L.554 20.323H19.14l-8.378-8.074Z" clip-rule="evenodd"/></g><path fill="#73570B" d="M6.084 3.052a.939.939 0 1 1-1.878 0 .939.939 0 0 1 1.878 0Z"/><path fill="#73570B" fill-rule="evenodd" d="M15.472 3.308H7.108v-.341h8.364v.341ZM15.472 5.869H4.206v-.342h11.265v.342ZM15.472 8.6H4.206v-.342h11.265V8.6Z" clip-rule="evenodd"/><path fill="#6B4F00" fill-rule="evenodd" d="M14.887 10.993H4.817l-.342-.341h10.796l-.384.341Z" clip-rule="evenodd"/></svg>
